<svg xmlns="http://www.w3.org/2000/svg" width="50" height="50" fill-rule="evenodd" xmlns:v="https://vecta.io/nano"><path d="M15.501 42.433l-10.715.002c-.485 0-.921-.106-1.246-.501-.41-.497-.5-1.045-.261-1.645.021-.053.025-.113.033-.171.191-1.482.806-2.773 1.747-3.922.749-.916 1.64-1.671 2.636-2.294.743-.465 1.505-.91 2.297-1.283.798-.379 1.632-.688 2.469-.973l2.831-.851c.178-.053.27-.144.267-.334-.005-.332.028-.667-.011-.996-.023-.192-.125-.395-.24-.557-.662-.943-1.184-1.954-1.523-3.057-.053-.173-.128-.354-.244-.486-.816-.945-1.232-2.074-1.509-3.262-.155-.66-.299-1.33-.36-2.004-.073-.807.109-1.579.549-2.284.087-.139.104-.346.092-.518l-.267-3.348c-.053-.793.056-1.581.261-2.344.32-1.194.891-2.245 1.981-2.908.383-.232.829-.368 1.258-.513.169-.057.306-.105.375-.279.441-1.1 1.229-1.898 2.217-2.514.637-.397 1.332-.637 2.065-.82s1.429-.05 2.135.058c1.829.279 3.66.2 5.494.052l2.109-.165c.233-.018.376.115.373.362-.009.5-.134.968-.415 1.386l-.155.227c-.099.143-.078.251.069.356.623.439 1.158.969 1.61 1.581a7.72 7.72 0 0 1 1.057 1.989c.693 1.939.777 3.924.478 5.942l-.144 1.035c-.012.123.021.272.086.375.582.915.65 1.907.51 2.949-.135 1.01-.414 1.981-.775 2.927-.229.594-.535 1.156-.964 1.646-.125.145-.233.327-.29.513-.247.813-.601 1.578-1.036 2.305l-.61.938a.89.89 0 0 0-.126.393l-.012 1.046c-.004.181.077.269.248.315l2.419.675c.118.033.249.072.335.152.077.073.151.208.141.307-.095.889-.12 1.774.112 2.647.063.236-.029.389-.191.547l-5.129 5.123c-.49.484-.713 1.066-.731 1.741-.012.381-.07.44-.434.44H15.502zm7.055-11.855c.83.046 1.604-.181 2.338-.52.904-.418 1.689-1.018 2.356-1.76.737-.823 1.332-1.737 1.694-2.787l.381-1.259c.036-.11.102-.263.191-.296.367-.136.535-.445.685-.754.432-.895.695-1.845.854-2.822.045-.275.047-.565.014-.842-.049-.428-.253-.605-.678-.67-.305-.047-.38-.161-.307-.465l.062-.216c.227-1.154.012-2.188-.809-3.07a.82.82 0 0 0-.843-.263c-1.918.386-3.766 0-5.586-.564l-2.527-.885c-1.587-.436-2.928-.004-3.899 1.313-.808 1.096-1.179 2.363-1.344 3.698-.043.349-.09.41-.427.472-.388.071-.626.294-.632.686a6.81 6.81 0 0 0 .094 1.21c.066.39.168.78.305 1.152l.683 1.618a.83.83 0 0 0 .37.349.56.56 0 0 1 .316.409l.475 1.568c.458 1.098 1.113 2.073 1.996 2.884 1.2 1.098 2.581 1.781 4.238 1.814zm-.016 5.353a6.74 6.74 0 0 0 3.571-.884c.792-.442 1.466-1.021 2.049-1.713.118-.142.123-.264-.034-.379a2.94 2.94 0 0 1-.965-1.149c-.07-.151-.18-.173-.327-.096l-1.321.681c-.727.343-1.507.505-2.302.576-1.036.095-2.061-.003-3.038-.374-.615-.235-1.212-.523-1.802-.814-.239-.117-.34-.144-.457.098-.208.429-.507.774-.884 1.059-.16.12-.164.251-.039.402.894 1.083 2.012 1.846 3.34 2.286.721.237 1.47.336 2.209.307zm7.927 9.23h-1.246c-.262 0-.475-.196-.479-.461l.013-2.591c.008-.196.148-.425.294-.573l5.743-5.746c.246-.245.307-.43.18-.796-.39-1.099-.432-2.237-.161-3.384.317-1.348 1.01-2.462 2.063-3.351.561-.474 1.19-.828 1.888-1.075.876-.31 1.771-.455 2.693-.353 1.914.216 3.457 1.083 4.567 2.68.937 1.345 1.269 2.844 1.03 4.448-.234 1.588-1.007 2.904-2.268 3.91-1.379 1.103-2.968 1.518-4.71 1.309-.447-.055-.883-.22-1.316-.354-.202-.064-.362-.071-.52.092l-.884.879c-.195.197-.417.306-.71.289-.363-.02-.729-.008-1.096-.003-.308.003-.382.083-.383.386v1.047c-.009.464-.223.688-.688.705l-1.047.003c-.301 0-.399.106-.395.41l-.001 1.12c-.022.207-.105.446-.242.599-.738.817-.745.81-1.854.81h-.471zm13.778-14.113c.058-.766-.621-1.446-1.413-1.453s-1.461.641-1.465 1.421.662 1.465 1.433 1.462c.762-.003 1.481-.626 1.445-1.43z"/></svg>