<svg xmlns="http://www.w3.org/2000/svg" width="50" height="50" xmlns:v="https://vecta.io/nano"><path fill-rule="evenodd" d="M34.467 36.432c.791 1 1.106 2.063.831 3.256-.2.867-.67 1.57-1.384 2.107-1.308.982-3.22.914-4.424-.156-.485-.432-.852-.941-1.07-1.555-.223-.619-.265-1.256-.143-1.9.119-.637.408-1.199.852-1.729h-7.87c.835 1.033 1.114 2.182.754 3.449-.231.818-.718 1.467-1.412 1.957-1.338.941-3.208.816-4.417-.297-.727-.668-1.128-1.498-1.188-2.484s.26-1.85.928-2.646c-.305 0-.553 0-.802-.002-.881 0-1.324-.615-1.033-1.441l1.187-3.332c.028-.078.048-.158.077-.256l-.786-.056c-.502-.087-.832-.396-.938-.892l-.405-2.141-1.071-5.895-1.14-6.255-.862-4.742a.29.29 0 0 0-.216-.255L6.47 9.873c-.47-.171-.827-.432-.94-.946-.102-.464.04-.854.388-1.157a1.1 1.1 0 0 1 1.18-.214l3.201 1.212 1.053.396c.646.196.934.638 1.046 1.284l1.226 6.775 1.03 5.69 1.096 5.984c.004.022.014.042.029.091h.241l18.474.004a.31.31 0 0 0 .351-.232l2.764-7.134 1.394-3.575 1.408-3.519c.228-.564.622-.849 1.139-.844.816.007 1.358.829 1.055 1.619l-.758 1.875-2.421 6.256-2.677 7.093c-.217.574-.624.85-1.255.85-5.912 0-11.824.001-17.737-.005-.213 0-.317.05-.39.267-.286.848-.598 1.688-.899 2.531-.025.07-.045.145-.08.258h.332l18.75-.002c.414 0 .756.123.978.486.408.666-.054 1.484-.854 1.512-.352.013-.703.004-1.127.004zm-15.894 4.066c.9.004 1.616-.709 1.626-1.615a1.63 1.63 0 0 0-1.609-1.641c-.882-.012-1.619.725-1.625 1.623-.006.903.71 1.629 1.608 1.633zm11.624-1.646c-.005.918.689 1.637 1.587 1.645.905.008 1.629-.701 1.636-1.6.007-.916-.714-1.654-1.613-1.652-.886.001-1.605.72-1.61 1.607z"/></svg>