<svg xmlns="http://www.w3.org/2000/svg" width="50" height="50" xmlns:v="https://vecta.io/nano"><path fill-rule="evenodd" d="M42.524 32.013l.003 9.144c0 .354-.064.677-.28.96-.26.34-.585.561-1.034.56-3.746 0-7.49-.012-11.235.009-.674.005-1.362-.687-1.339-1.283.005-.113-.007-.228-.007-.341V28.668c0-.321-.015-.34-.328-.34-1.979-.001-3.957-.001-5.935 0-.33 0-.346.02-.346.347l.005 12.556c.001.633-.269 1.068-.819 1.348-.092.046-.199.073-.301.085-.143.017-.288.014-.432.014H9.719c-.351 0-.688-.01-.987-.25-.32-.256-.523-.562-.568-.968-.014-.127-.013-.257-.013-.386V22.743c0-.046.009-.093-.002-.135-.016-.062-.031-.15-.074-.173s-.128.015-.176.052l-2.004 1.456c-.239.171-.479.348-.736.488-.45.246-.91.167-1.314-.094-.451-.292-.681-.731-.597-1.285.066-.432.308-.768.658-1.023l9.243-6.719 7.701-5.596 3.495-2.534c.26-.185.561-.362.864-.418.231-.043.53.062.744.19.467.278.904.608 1.345.928l8.124 5.901 7.681 5.586 3.676 2.671c.614.449.825 1.173.523 1.781-.392.79-1.339.988-2.113.432l-2.368-1.727c-.067-.049-.154-.072-.232-.109-.021.085-.061.167-.061.252l-.004 9.346zm-31.659-1.891l.001 9.483c0 .342.026.367.355.367h7.664c.432 0 .432 0 .432-.42v-5.23l-.006-7.232c-.007-.806.653-1.5 1.504-1.492l9.027-.001c.798-.009 1.505.648 1.499 1.486l-.015 12.484c0 .398.008.405.408.405h7.687c.374 0 .395-.02.395-.4V24.085l.002-3.456c0-.19-.051-.327-.212-.444L36.5 17.926l-8.268-6.015-2.66-1.944c-.18-.133-.316-.14-.479.005-.107.096-.23.174-.346.259l-7.682 5.587-5.938 4.312c-.205.148-.266.316-.266.554l.004 9.438z"/></svg>