<svg xmlns="http://www.w3.org/2000/svg" width="50" height="50" fill-rule="evenodd" xmlns:v="https://vecta.io/nano"><path d="M25.406 12.512h17.568c1.265 0 2.251.961 2.257 2.188a2.21 2.21 0 0 1-2.135 2.215l-.171.001H7.888c-1.181 0-2.075-.728-2.275-1.851-.227-1.268.764-2.499 2.055-2.551l.318-.003 17.42.001zm-.015 24.945H7.849c-1.269 0-2.251-.949-2.266-2.179-.014-1.197.949-2.193 2.15-2.226h.146 35.062c1.337 0 2.337 1.008 2.29 2.305a2.22 2.22 0 0 1-2.101 2.099l-.293.001H25.391zm-.01-10.274c-5.832 0-11.663 0-17.494-.001-1.098 0-1.94-.612-2.222-1.607-.38-1.342.588-2.701 1.981-2.781.09-.005.18-.005.27-.005h34.987c1.12 0 1.962.604 2.247 1.608.379 1.343-.589 2.701-1.981 2.78-.122.007-.245.007-.367.007l-17.421-.001z"/></svg>