<svg xmlns="http://www.w3.org/2000/svg" width="50" height="50" xmlns:v="https://vecta.io/nano"><path fill-rule="evenodd" d="M46.966 17.88c.02 1.105-.17 2.439-.533 3.741-.345 1.241-.878 2.409-1.538 3.519-.911 1.537-2.01 2.929-3.205 4.249-2.565 2.832-5.419 5.357-8.324 7.826l-6.468 5.401-1.516 1.248c-.155.132-.263.132-.418.005l-3.473-2.865-6.275-5.311c-1.943-1.673-3.827-3.411-5.602-5.266-1.451-1.515-2.819-3.099-3.929-4.886-.724-1.167-1.319-2.395-1.71-3.717-.245-.829-.371-1.678-.515-2.527-.156-.921-.14-1.843-.078-2.756.05-.729.24-1.454.418-2.167.384-1.547 1.128-2.924 2.12-4.16a11.08 11.08 0 0 1 3.157-2.703c1.26-.723 2.598-1.224 4.043-1.41a20.64 20.64 0 0 1 1.469-.128c1.659-.099 3.263.187 4.798.799 1.345.537 2.565 1.3 3.631 2.286.677.626 1.319 1.292 1.966 1.951.145.148.22.144.366 0 .795-.784 1.56-1.6 2.41-2.319 1.323-1.12 2.827-1.925 4.524-2.349.894-.223 1.791-.347 2.714-.379a11.67 11.67 0 0 1 3.992.539 11.34 11.34 0 0 1 4.117 2.343c1.032.916 1.866 1.982 2.516 3.191.431.801.748 1.647.974 2.532.257 1.008.376 2.026.369 3.313zm-40.998-.215v.67c.019.899.185 1.777.434 2.634.345 1.187.88 2.295 1.54 3.341a23.9 23.9 0 0 0 3.171 3.988c1.379 1.405 2.79 2.785 4.244 4.113 3.025 2.762 6.203 5.346 9.377 7.935.43.352.438.355.847.011l8.691-7.315c1.923-1.648 3.758-3.396 5.455-5.283 1.03-1.147 1.993-2.344 2.798-3.664.774-1.271 1.358-2.623 1.646-4.084.198-.998.275-2.011.218-3.033-.113-1.951-.761-3.702-2.008-5.206-1.636-1.972-3.763-3.04-6.307-3.239-1.369-.107-2.711.076-4.009.573-1.2.46-2.269 1.127-3.233 1.965-1.28 1.11-2.348 2.417-3.435 3.705-.228.27-.223.266-.457.004l-2.949-3.246c-1.099-1.136-2.414-1.978-3.91-2.505-1.308-.461-2.66-.606-4.044-.472a8.95 8.95 0 0 0-3.722 1.197c-1.223.719-2.212 1.681-2.978 2.875-.527.822-.899 1.707-1.136 2.658-.193.784-.243 1.578-.233 2.378z"/></svg>