<svg xmlns="http://www.w3.org/2000/svg" width="70" height="50" viewBox="-10 -1.5 70 50" xmlns:v="https://vecta.io/nano"><path fill="#d51912" stroke="#d51912" stroke-width="2" stroke-miterlimit="10" d="M25.08 43.032C13.523 31.535 2.5 21.653 2.5 13.132c0-7.871 6.296-10.778 10.841-10.778 2.69 0 8.518 1.042 11.739 9.252 3.267-8.237 9.163-9.232 11.753-9.232 5.216 0 10.826 3.366 10.826 10.757 0 8.449-10.545 17.909-22.579 29.901M36.833.3c-4.521 0-9.127 2.162-11.753 6.723C22.442 2.444 17.851.281 13.341.281 6.805.281.447 4.821.447 13.134c0 9.676 11.436 19.576 24.633 32.82 13.199-13.242 24.634-23.144 24.634-32.82C49.714 4.806 43.356.3 36.833.3"/></svg>